<svg width="135" height="116" viewBox="0 0 135 116" xmlns="http://www.w3.org/2000/svg">
<path d="M36.182 93.286c0 7.05-1.94 12.482-5.822 16.296s-9.338 5.72-16.368 5.72H.325V73.06h14.62c6.78 0 12.015 1.734 15.704 5.201 3.688 3.467 5.533 8.476 5.533 15.025zm-11.847.404c0-3.872-.765-6.742-2.297-8.61-1.53-1.868-3.857-2.803-6.977-2.803h-3.323v23.664h2.543c3.467 0 6.01-1.006 7.627-3.02 1.618-2.012 2.427-5.09 2.427-9.23zm48.906 5.172c0 5.355-1.44 9.53-4.32 12.525-2.88 2.996-6.91 4.493-12.092 4.493-4.97 0-8.923-1.53-11.86-4.594-2.938-3.062-4.407-7.204-4.407-12.424 0-5.336 1.44-9.482 4.32-12.438 2.88-2.957 6.92-4.436 12.12-4.436 3.217 0 6.058.684 8.524 2.052 2.466 1.367 4.368 3.327 5.706 5.88 1.34 2.552 2.009 5.533 2.009 8.942zm-21.208 0c0 2.812.375 4.955 1.127 6.429.75 1.474 2.012 2.21 3.785 2.21 1.752 0 2.99-.736 3.712-2.21.723-1.474 1.084-3.617 1.084-6.429 0-2.793-.366-4.902-1.098-6.328-.732-1.425-1.984-2.138-3.756-2.138-1.734 0-2.976.708-3.727 2.124-.752 1.416-1.127 3.53-1.127 6.342zm41.45 17.018c-5.355 0-9.414-1.444-12.178-4.334-2.764-2.889-4.147-7.04-4.147-12.453 0-5.432 1.493-9.64 4.479-12.626 2.986-2.986 7.233-4.479 12.742-4.479 3.795 0 7.368.829 10.72 2.485l-3.323 8.35a36.228 36.228 0 0 0-3.785-1.43 12.188 12.188 0 0 0-3.612-.534c-1.83 0-3.246.712-4.247 2.138-1.002 1.425-1.503 3.438-1.503 6.039 0 5.239 1.936 7.859 5.808 7.859 3.313 0 6.491-.964 9.535-2.89v8.986c-2.909 1.926-6.405 2.89-10.489 2.89zm41.162-10.632c0 3.505-1.194 6.154-3.583 7.945-2.388 1.792-5.817 2.687-10.286 2.687-2.427 0-4.536-.13-6.328-.39-1.791-.26-3.62-.736-5.49-1.43v-9.044c1.754.771 3.675 1.407 5.765 1.907 2.09.501 3.953.752 5.59.752 2.447 0 3.67-.559 3.67-1.676 0-.578-.342-1.093-1.025-1.546-.684-.453-2.673-1.334-5.967-2.644-3.005-1.232-5.104-2.634-6.299-4.204-1.194-1.57-1.791-3.558-1.791-5.966 0-3.044 1.175-5.413 3.525-7.108 2.35-1.695 5.673-2.543 9.968-2.543 2.157 0 4.185.236 6.082.708 1.898.472 3.867 1.16 5.909 2.066l-3.063 7.281a34.413 34.413 0 0 0-4.767-1.719c-1.676-.472-3.044-.708-4.103-.708-1.85 0-2.774.453-2.774 1.358 0 .559.323 1.036.968 1.43.645.395 2.509 1.2 5.59 2.413 2.293.944 4.003 1.869 5.13 2.774 1.126.905 1.955 1.97 2.484 3.193.53 1.223.795 2.71.795 4.464z" fill="#C0C5CB"/>
<path d="M75.873 36.397c0 6.16-2.46 7.263-5.21 7.263h-5.845V29.135h5.846c2.75 0 5.21 1.104 5.21 7.262zm-2.98 0c0-4.299-1.303-4.502-3.184-4.502h-1.824V40.9h1.824c1.881 0 3.183-.203 3.183-4.503zM41.924 43.66V29.135h9.203v2.76h-6.135v2.963h4.63v2.73h-4.63V40.9h6.135v2.76h-9.203zM56.28 72.71h3.068V.085H56.28V72.71zm25.729-35.5v3.69h2.547c1.592 0 1.997-1.046 1.997-1.83 0-.61-.29-1.86-2.46-1.86h-2.084zm0-5.315v2.76h2.084c1.186 0 1.88-.523 1.88-1.395 0-.871-.694-1.365-1.88-1.365h-2.084zm-3.068-2.76h5.904c3.097 0 4.023 2.179 4.023 3.747 0 1.453-.926 2.499-1.563 2.79 1.853.9 2.17 2.73 2.17 3.66 0 1.22-.607 4.328-4.63 4.328h-5.904V29.135zM24.3 36.397c0 6.16-2.46 7.263-5.209 7.263h-5.846V29.135h5.846c2.75 0 5.21 1.104 5.21 7.262zm9.03 4.62c1.563 0 2.373-.523 2.663-.872v-1.598h-2.49V36.05h4.95v5.78c-.434.669-2.807 1.976-4.978 1.976-3.56 0-6.57-1.394-6.57-7.553 0-6.158 3.039-7.262 5.788-7.262 4.313 0 5.384 2.266 5.73 4.27l-2.546.581c-.145-.93-.955-2.092-2.807-2.092-1.881 0-3.184.204-3.184 4.503 0 4.3 1.36 4.764 3.444 4.764zm-12.01-4.62c0-4.299-1.303-4.502-3.184-4.502h-1.823V40.9h1.823c1.881 0 3.183-.203 3.183-4.503zM.566 43.66V29.135H9.77v2.76H3.635v2.963h4.63v2.73h-4.63V40.9h6.136v2.76H.567z" fill="#4F5362"/>
</svg>
